HIERARCHY
ROOT Hips
{
	OFFSET 0.000000 0.000000 0.000000
	CHANNELS 6 Xposition Yposition Zposition Xrotation Yrotation Zrotation
	JOINT LeftUpLeg_virtual
	{
		OFFSET 0.000000 0.000000 0.000000
		CHANNELS 3 Xrotation Yrotation Zrotation
		JOINT LeftUpLeg
		{
			OFFSET 11.394100 -6.187798 -0.413800
			CHANNELS 3 Xrotation Yrotation Zrotation
			JOINT LeftLeg
			{
				OFFSET 0.430247 -32.302673 3.732800
				CHANNELS 3 Xrotation Yrotation Zrotation
				JOINT LeftFoot
				{
					OFFSET -0.430247 -48.264931 -6.423300
					CHANNELS 3 Xrotation Yrotation Zrotation
					JOINT LeftToeBase
					{
						OFFSET 4.230900 -16.068199 23.438400
						CHANNELS 3 Xrotation Yrotation Zrotation
						JOINT LeftToe_End
						{
							OFFSET 4.510700 0.695400 19.974600
							CHANNELS 3 Xrotation Yrotation Zrotation
							End Site
							{
								OFFSET 0 0 0
							}
						}
					}
				}
			}
		}
	}
	JOINT RightUpLeg_virtual
	{
		OFFSET 0.000000 0.000000 0.000000
		CHANNELS 3 Xrotation Yrotation Zrotation
		JOINT RightUpLeg
		{
			OFFSET -11.333700 -6.187798 -0.413800
			CHANNELS 3 Xrotation Yrotation Zrotation
			JOINT RightLeg
			{
				OFFSET -0.430392 -32.302628 3.733000
				CHANNELS 3 Xrotation Yrotation Zrotation
				JOINT RightFoot
				{
					OFFSET 0.430392 -48.264973 -6.423500
					CHANNELS 3 Xrotation Yrotation Zrotation
					JOINT RightToeBase
					{
						OFFSET -4.230900 -16.068199 23.438400
						CHANNELS 3 Xrotation Yrotation Zrotation
						JOINT RightToe_End
						{
							OFFSET -4.510700 0.695400 19.974600
							CHANNELS 3 Xrotation Yrotation Zrotation
							End Site
							{
								OFFSET 0 0 0
							}
						}
					}
				}
			}
		}
	}
	JOINT Spine_virtual
	{
		OFFSET 0.000000 0.000000 0.000000
		CHANNELS 3 Xrotation Yrotation Zrotation
		JOINT Spine
		{
			OFFSET -0.002400 12.777504 0.315300
			CHANNELS 3 Xrotation Yrotation Zrotation
			JOINT Spine1
			{
				OFFSET -0.002067 5.816869 0.032633
				CHANNELS 3 Xrotation Yrotation Zrotation
				JOINT Spine1_split
				{
					OFFSET -0.002067 5.816869 0.032633
					CHANNELS 3 Xrotation Yrotation Zrotation
					JOINT Spine2
					{
						OFFSET -0.002067 5.816869 0.032633
						CHANNELS 3 Xrotation Yrotation Zrotation
						JOINT Neck_virtual
						{
							OFFSET 0.000000 0.000000 0.000000
							CHANNELS 3 Xrotation Yrotation Zrotation
							JOINT Neck
							{
								OFFSET -0.003700 21.199493 -0.826900
								CHANNELS 3 Xrotation Yrotation Zrotation
								JOINT Head
								{
									OFFSET 0.000000 20.442200 4.834800
									CHANNELS 3 Xrotation Yrotation Zrotation
									JOINT HeadTop_End
									{
										OFFSET 0.000000 34.668396 4.968400
										CHANNELS 3 Xrotation Yrotation Zrotation
										End Site
										{
											OFFSET 0 0 0
										}
									}
								}
							}
						}
						JOINT LeftShoulder_virtual
						{
							OFFSET 0.000000 0.000000 0.000000
							CHANNELS 3 Xrotation Yrotation Zrotation
							JOINT LeftShoulder
							{
								OFFSET 3.288150 8.794197 -1.372250
								CHANNELS 3 Xrotation Yrotation Zrotation
								JOINT LeftShoulder_split
								{
									OFFSET 3.288150 8.794197 -1.372250
									CHANNELS 3 Xrotation Yrotation Zrotation
									JOINT LeftArm
									{
										OFFSET 11.953299 -2.279007 -0.146200
										CHANNELS 3 Xrotation Yrotation Zrotation
										JOINT LeftForeArm
										{
											OFFSET 18.448900 0.000000 0.000000
											CHANNELS 3 Xrotation Yrotation Zrotation
											JOINT LeftHand
											{
												OFFSET 29.527798 0.000000 0.000000
												CHANNELS 3 Xrotation Yrotation Zrotation
												End Site
												{
													OFFSET 0 0 0
												}
											}
										}
									}
								}
							}
						}
						JOINT RightShoulder_virtual
						{
							OFFSET 0.000000 0.000000 0.000000
							CHANNELS 3 Xrotation Yrotation Zrotation
							JOINT RightShoulder
							{
								OFFSET -3.249400 8.794197 -1.372250
								CHANNELS 3 Xrotation Yrotation Zrotation
								JOINT RightShoulder_split
								{
									OFFSET -3.249400 8.794197 -1.372250
									CHANNELS 3 Xrotation Yrotation Zrotation
									JOINT RightArm
									{
										OFFSET -11.953299 -2.279007 -0.146200
										CHANNELS 3 Xrotation Yrotation Zrotation
										JOINT RightForeArm
										{
											OFFSET -18.448900 0.000000 0.000000
											CHANNELS 3 Xrotation Yrotation Zrotation
											JOINT RightHand
											{
												OFFSET -29.527802 0.000000 0.000000
												CHANNELS 3 Xrotation Yrotation Zrotation
												End Site
												{
													OFFSET 0 0 0
												}
											}
										}
									}
								}
							}
						}
					}
				}
			}
		}
	}
}
MOTION
Frames: 5
Frame Time: 0.03333333
7.582555 54.709682 -34.093655 0.000000 0.000000 0.000000 57.264238 10.204299 -3.807078 4.424242 13.267476 11.560629 5.225694 -3.123120 -4.875202 -28.351441 21.627372 -6.814948 -9.377261 -11.245256 -1.584422 0.000000 0.000000 0.000000 57.553257 2.348576 -0.571735 -11.429970 -12.340426 -10.586641 5.732574 1.653062 -1.562229 -20.752630 -20.140532 10.711845 -10.445868 -2.140411 1.666683 0.000000 0.000000 0.000000 64.685942 7.662001 -6.031414 8.118306 2.611804 -0.228575 -3.795921 -1.897884 1.821365 0.047062 0.538723 -0.003333 0.000000 0.000000 0.000000 -3.144568 0.364606 1.975687 -24.944467 15.353263 7.450615 -10.856443 -27.179778 -9.150691 0.000000 0.000000 0.000000 -3.534095 -0.872359 1.025984 1.615326 0.447469 1.853375 1.747727 0.452156 -3.764982 -32.976024 -62.889308 -41.705074 0.165793 -14.852535 -0.484132 0.000000 0.000000 0.000000 -0.615299 0.146526 1.951959 -1.894046 4.088962 15.454041 -1.867450 1.756770 2.723636 -39.306175 51.406391 42.627754 -22.902550 31.011518 13.806909 0.000000 0.000000 0.000000 
7.566079 54.591965 -34.045597 0.000000 0.000000 0.000000 57.035611 10.288059 -3.690611 4.707099 13.130803 11.428064 4.954337 -3.246660 -4.939346 -28.652814 21.653781 -6.679908 -9.412104 -11.132637 -1.673224 0.000000 0.000000 0.000000 57.336631 1.983513 -0.284670 -11.613952 -12.762117 -10.747790 5.976706 1.642085 -1.505119 -20.866960 -20.014809 10.495153 -9.881742 -2.153426 1.791729 0.000000 0.000000 0.000000 64.954307 7.526261 -5.711119 8.333055 2.637830 -0.252810 -3.900245 -1.896960 1.834998 0.033941 0.532376 -0.004926 0.000000 0.000000 0.000000 -3.126199 0.353356 2.006202 -25.086576 15.360945 7.283494 -10.755291 -26.980904 -9.068629 0.000000 0.000000 0.000000 -3.553303 -0.887621 0.986495 1.671401 0.308384 1.935071 2.258898 0.535684 -3.413355 -34.040061 -62.644289 -42.554035 0.210355 -15.028288 -0.493509 0.000000 0.000000 0.000000 -0.602841 0.169148 2.016991 -1.866185 4.621438 15.385980 -1.625567 1.682544 2.466082 -40.069937 50.748292 42.788072 -22.852099 31.561491 13.959903 0.000000 0.000000 0.000000 
7.556412 54.450890 -34.046398 0.000000 0.000000 0.000000 56.843560 10.614601 -3.696668 4.769529 12.947216 11.613360 4.552069 -3.602839 -5.126617 -28.348270 21.615380 -7.114161 -9.338866 -11.041718 -1.440405 0.000000 0.000000 0.000000 57.129994 1.892824 -0.131653 -11.720003 -13.386116 -11.019499 6.157083 1.663543 -1.458903 -20.778890 -19.687768 10.350611 -10.200059 -2.093705 1.980797 0.000000 0.000000 0.000000 65.091225 7.488088 -5.340282 8.552292 2.708589 -0.220129 -3.978522 -1.908555 1.826472 0.020827 0.497849 0.000172 0.000000 0.000000 0.000000 -3.058617 0.324723 2.014889 -25.074126 15.414642 6.932594 -10.549497 -26.840246 -8.972218 0.000000 0.000000 0.000000 -3.503855 -0.926475 0.909649 1.716817 -0.031656 2.227207 2.817199 0.838675 -3.154040 -34.439579 -62.634180 -42.837942 0.501942 -15.680543 -0.378524 0.000000 0.000000 0.000000 -0.519872 0.173722 2.063139 -1.913126 5.442661 15.242546 -1.432806 1.427108 2.233434 -39.709436 49.517307 42.090884 -22.744907 33.408204 14.163153 0.000000 0.000000 0.000000 
7.513223 54.295311 -34.024685 0.000000 0.000000 0.000000 56.701232 11.168743 -3.833125 4.621453 12.813767 12.078597 3.913835 -4.051342 -5.417739 -27.392588 21.512579 -7.897155 -9.381179 -10.990063 -0.947641 0.000000 0.000000 0.000000 57.018061 2.123610 -0.138789 -11.727644 -14.080454 -11.360336 6.261996 1.633391 -1.445330 -20.649610 -19.247261 10.191659 -11.165757 -1.987000 2.219288 0.000000 0.000000 0.000000 65.109741 7.511880 -4.955872 8.739625 2.805943 -0.124113 -3.994978 -1.960783 1.799225 0.013811 0.428209 0.006198 0.000000 0.000000 0.000000 -2.949818 0.261040 2.012153 -24.929629 15.525151 6.433873 -10.354052 -26.802289 -8.876740 0.000000 0.000000 0.000000 -3.375047 -1.003334 0.813838 1.754096 -0.523277 2.711276 3.275413 1.336624 -3.072603 -34.267930 -62.727911 -42.598971 0.982080 -16.648279 -0.142489 0.000000 0.000000 0.000000 -0.362546 0.148313 2.097834 -2.043575 6.562624 15.012262 -1.294913 1.090825 2.070653 -38.544417 47.828598 40.782639 -22.507954 36.180578 14.333985 0.000000 0.000000 0.000000 
7.435824 54.163445 -34.008488 0.000000 0.000000 0.000000 56.685963 11.938705 -4.114699 4.381233 12.945865 12.698473 2.875938 -4.185842 -5.748084 -26.267784 21.301458 -8.321985 -9.726125 -11.006460 -0.307797 0.000000 0.000000 0.000000 57.043097 2.617618 -0.287695 -11.687352 -14.723072 -11.733921 6.316834 1.410635 -1.467649 -20.664760 -18.766271 9.829871 -12.022017 -1.810778 2.469563 0.000000 0.000000 0.000000 65.055373 7.644333 -4.659081 8.874076 2.901653 0.036881 -3.926599 -2.087059 1.756299 -0.007311 0.326717 0.005621 0.000000 0.000000 0.000000 -2.787259 0.147713 2.008212 -24.658501 15.677630 5.834528 -10.256729 -26.898979 -8.787990 0.000000 0.000000 0.000000 -3.145982 -1.134581 0.705980 1.779812 -1.144018 3.352542 3.614929 1.947714 -3.199668 -33.678696 -62.762806 -41.858090 1.530162 -17.734475 0.176987 0.000000 0.000000 0.000000 -0.118955 0.080662 2.128292 -2.262970 7.981034 14.687569 -1.066355 0.647847 1.833388 -37.074045 45.847460 39.131636 -22.098483 39.446897 14.400390 0.000000 0.000000 0.000000 
